<svg xmlns="http://www.w3.org/2000/svg" viewBox="0 0 40 40" fill="none">
  <rect width="40" height="40" rx="8" fill="#0E1E25"/>
  <path d="M22.3 12.3l5.4 5.4c.2.2.2.5 0 .7l-2.1 2.1-.1-.1c-.5-.5-1.2-.6-1.8-.3l-.8-1.5c.3-.3.3-.8-.1-1.1-.3-.3-.8-.3-1.1.1-.3.3-.3.8.1 1.1l-.8 1.5c-.6-.3-1.3-.2-1.8.3l-.1.1-2.1-2.1c-.2-.2-.2-.5 0-.7l5.4-5.4zm-4.6 10.4c.5.5 1.2.6 1.8.3l.8 1.5c-.3.3-.3.8.1 1.1.3.3.8.3 1.1-.1.3-.3.3-.8-.1-1.1l.8-1.5c.6.3 1.3.2 1.8-.3l3.5 3.5-8.2 1.5L14.2 24l3.5-3.3z" fill="#00C7B7"/>
  <path d="M28.4 18.3l-5.3 5.3c-.1.1-.2.1-.3.1l-8.7 1.6c-.2 0-.4-.1-.4-.4l1.6-8.7c0-.1.1-.2.1-.3l5.3-5.3c.4-.4 1-.4 1.4 0l6.3 6.3c.4.4.4 1 0 1.4z" fill="#00C7B7" fill-opacity=".3"/>
</svg>
